<svg id="Money" xmlns="http://www.w3.org/2000/svg" width="20" height="20" viewBox="0 0 20 20">
  <path id="Path_291" data-name="Path 291" d="M10.887,9.583c-1.892-.492-2.5-1-2.5-1.792,0-.908.842-1.542,2.25-1.542,1.483,0,2.033.708,2.083,1.75h1.842a3.322,3.322,0,0,0-2.675-3.175V3h-2.5V4.8C7.77,5.15,6.47,6.2,6.47,7.808c0,1.925,1.592,2.883,3.917,3.442,2.083.5,2.5,1.233,2.5,2.008,0,.575-.408,1.492-2.25,1.492-1.717,0-2.392-.767-2.483-1.75H6.32a3.491,3.491,0,0,0,3.067,3.192V18h2.5V16.208c1.625-.308,2.917-1.25,2.917-2.958C14.8,10.883,12.778,10.075,10.887,9.583Z" transform="translate(-1.053 -0.5)" fill="#32c951"/>
  <path id="Path_292" data-name="Path 292" d="M0,0H20V20H0Z" fill="none"/>
</svg>
